<svg id="Layer_1" data-name="Layer 1" xmlns="http://www.w3.org/2000/svg" xmlns:xlink="http://www.w3.org/1999/xlink" viewBox="0 0 197.49 175.9"><defs><style>.cls-1{fill:url(#New_Gradient_Swatch_1);}.cls-2{fill:url(#New_Gradient_Swatch_1-2);}.cls-3{fill:url(#New_Gradient_Swatch_1-3);}.cls-4{fill:url(#New_Gradient_Swatch_1-4);}.cls-5{fill:url(#New_Gradient_Swatch_1-5);}.cls-6{fill:url(#New_Gradient_Swatch_1-6);}.cls-7{fill:url(#New_Gradient_Swatch_1-7);}.cls-8{fill:url(#New_Gradient_Swatch_1-8);}.cls-9{fill:url(#New_Gradient_Swatch_1-9);}.cls-10{fill:url(#New_Gradient_Swatch_1-10);}.cls-11{fill:url(#New_Gradient_Swatch_1-11);}.cls-12{fill:url(#New_Gradient_Swatch_1-12);}.cls-13{fill:url(#New_Gradient_Swatch_1-13);}.cls-14{fill:url(#New_Gradient_Swatch_1-14);}</style><linearGradient id="New_Gradient_Swatch_1" x1="41.56" y1="177.19" x2="154.62" y2="51.19" gradientUnits="userSpaceOnUse"><stop offset="0" stop-color="#c40076"/><stop offset="1" stop-color="#1170aa"/></linearGradient><linearGradient id="New_Gradient_Swatch_1-2" x1="13.76" y1="152.24" x2="126.82" y2="26.24" xlink:href="#New_Gradient_Swatch_1"/><linearGradient id="New_Gradient_Swatch_1-3" x1="24.39" y1="161.78" x2="137.45" y2="35.78" xlink:href="#New_Gradient_Swatch_1"/><linearGradient id="New_Gradient_Swatch_1-4" x1="35.01" y1="171.31" x2="148.07" y2="45.31" xlink:href="#New_Gradient_Swatch_1"/><linearGradient id="New_Gradient_Swatch_1-5" x1="39.31" y1="175.16" x2="152.36" y2="49.16" xlink:href="#New_Gradient_Swatch_1"/><linearGradient id="New_Gradient_Swatch_1-6" x1="79.68" y1="211.39" x2="192.74" y2="85.39" xlink:href="#New_Gradient_Swatch_1"/><linearGradient id="New_Gradient_Swatch_1-7" x1="19.63" y1="157.51" x2="132.69" y2="31.51" xlink:href="#New_Gradient_Swatch_1"/><linearGradient id="New_Gradient_Swatch_1-8" x1="42.99" y1="178.47" x2="156.04" y2="52.46" xlink:href="#New_Gradient_Swatch_1"/><linearGradient id="New_Gradient_Swatch_1-9" x1="50.2" y1="184.94" x2="163.26" y2="58.93" xlink:href="#New_Gradient_Swatch_1"/><linearGradient id="New_Gradient_Swatch_1-10" x1="87.06" y1="218.01" x2="200.12" y2="92.01" xlink:href="#New_Gradient_Swatch_1"/><linearGradient id="New_Gradient_Swatch_1-11" x1="40.93" y1="176.62" x2="153.98" y2="50.61" xlink:href="#New_Gradient_Swatch_1"/><linearGradient id="New_Gradient_Swatch_1-12" x1="111.13" y1="239.61" x2="224.19" y2="113.6" xlink:href="#New_Gradient_Swatch_1"/><linearGradient id="New_Gradient_Swatch_1-13" x1="-37.89" y1="105.9" x2="75.17" y2="-20.1" xlink:href="#New_Gradient_Swatch_1"/><linearGradient id="New_Gradient_Swatch_1-14" x1="-26.85" y1="115.81" x2="86.21" y2="-10.2" xlink:href="#New_Gradient_Swatch_1"/></defs><title>Artboard ٣</title><path class="cls-1" d="M128,113.63H73.67a2.5,2.5,0,0,1,0-5H128a2.5,2.5,0,0,1,0,5Z"/><path class="cls-2" d="M81.66,100.13a2.49,2.49,0,0,1-2.5-2.49V55.51a2.5,2.5,0,0,1,5,0V97.64A2.49,2.49,0,0,1,81.66,100.13Z"/><path class="cls-3" d="M100.84,100.13a2.49,2.49,0,0,1-2.5-2.49V55.51a2.5,2.5,0,0,1,5,0V97.64A2.49,2.49,0,0,1,100.84,100.13Z"/><path class="cls-4" d="M120,100.13a2.49,2.49,0,0,1-2.5-2.49V55.51a2.5,2.5,0,0,1,5,0V97.64A2.48,2.48,0,0,1,120,100.13Z"/><path class="cls-5" d="M182.72,41H168.78a2.5,2.5,0,0,1-2.49-2.73l3.32-34.53a2.5,2.5,0,0,1,2.49-2.26h7.3a2.5,2.5,0,0,1,2.48,2.26l3.32,34.53A2.5,2.5,0,0,1,182.72,41Zm-11.19-5H180L177.13,6.49h-2.76Z"/><path class="cls-6" d="M175.75,164.4a2.49,2.49,0,0,1-2.5-2.49V46.74a2.5,2.5,0,0,1,5,0V161.91A2.49,2.49,0,0,1,175.75,164.4Z"/><path class="cls-7" d="M63.58,86.09a2.49,2.49,0,0,0,2.49-2.5V54.17a7.34,7.34,0,0,1,7.33-7.33h54.87a7.34,7.34,0,0,1,7.33,7.33V83.59a2.5,2.5,0,0,0,5,0V54.17a12.34,12.34,0,0,0-12.33-12.33H73.4A12.34,12.34,0,0,0,61.08,54.17V83.59A2.5,2.5,0,0,0,63.58,86.09Z"/><path class="cls-8" d="M167.69,102.31A13.69,13.69,0,0,0,154,87.94H137.17A11.68,11.68,0,0,0,125.5,99.61V152H76.17V99.61A11.68,11.68,0,0,0,64.5,87.94H48a13.85,13.85,0,0,0-14,13,13.71,13.71,0,0,0,13.7,14.37h3.8v32A9.67,9.67,0,0,0,61.14,157h79.4a9.68,9.68,0,0,0,9.66-9.66v-32h3.48a13.85,13.85,0,0,0,14-13Zm-111.22,45V112.86a2.5,2.5,0,0,0-2.5-2.5H47.68A8.72,8.72,0,0,1,39,101.22a9,9,0,0,1,9-8.29H64.5a6.69,6.69,0,0,1,6.68,6.68V152h-10a4.67,4.67,0,0,1-4.67-4.66Zm97.21-37h-6a2.5,2.5,0,0,0-2.5,2.5v34.49a4.66,4.66,0,0,1-4.66,4.66h-10V99.61a6.68,6.68,0,0,1,6.67-6.68H154a8.72,8.72,0,0,1,8.7,9.14A9,9,0,0,1,153.68,110.36Z"/><path class="cls-9" d="M74,159.43a2.5,2.5,0,0,0-2.78,2.18l-.8,6.79a2.83,2.83,0,0,1-5.63,0L64,161.61a2.5,2.5,0,0,0-5,.59L59.8,169a7.83,7.83,0,0,0,15.55,0l.81-6.79A2.5,2.5,0,0,0,74,159.43Z"/><path class="cls-10" d="M140.5,159.43a2.49,2.49,0,0,0-2.77,2.18l-.81,6.79a2.83,2.83,0,0,1-5.63,0l-.81-6.79a2.5,2.5,0,0,0-5,.59l.81,6.79a7.83,7.83,0,0,0,15.55,0l.81-6.79a2.5,2.5,0,0,0-2.19-2.77Z"/><path class="cls-11" d="M197.41,37.87,188.24,3.35a2.49,2.49,0,0,0-2.41-1.86H165.66a2.5,2.5,0,0,0-2.41,1.86l-9.17,34.52a2.56,2.56,0,0,0,.44,2.17,2.5,2.5,0,0,0,2,1H195a2.5,2.5,0,0,0,2.42-3.14ZM159.75,36l7.84-29.53h16.32L191.75,36Z"/><path class="cls-12" d="M187.65,159.75h-23.8a7.84,7.84,0,1,0,0,15.68h23.8a7.84,7.84,0,0,0,0-15.68Zm0,10.68h-23.8a2.85,2.85,0,1,1,0-5.69h23.8a2.85,2.85,0,0,1,0,5.69Z"/><path class="cls-13" d="M51.62,49.23H18.47A2.5,2.5,0,0,1,16,46.74V2.5A2.5,2.5,0,0,1,18.47,0H51.62a2.49,2.49,0,0,1,2.49,2.5V46.74A2.49,2.49,0,0,1,51.62,49.23ZM21,44.24H49.12V5H21Z"/><path class="cls-14" d="M21.61,87.41H2.5A2.5,2.5,0,0,1,0,84.91V60a2.5,2.5,0,0,1,2.5-2.5H21.61A2.49,2.49,0,0,1,24.1,60V84.91a2.49,2.49,0,0,1-2.49,2.5ZM5,82.41H19.11V62.49H5Z"/></svg>