<svg id="Layer_1" data-name="Layer 1" xmlns="http://www.w3.org/2000/svg" xmlns:xlink="http://www.w3.org/1999/xlink" viewBox="0 0 177.79 156.46"><defs><style>.cls-1{fill:url(#New_Gradient_Swatch_1);}.cls-2{fill:url(#New_Gradient_Swatch_1-2);}.cls-3{fill:url(#New_Gradient_Swatch_1-3);}.cls-4{fill:url(#New_Gradient_Swatch_1-4);}.cls-5{fill:url(#New_Gradient_Swatch_1-5);}.cls-6{fill:url(#New_Gradient_Swatch_1-6);}.cls-7{fill:url(#New_Gradient_Swatch_1-7);}.cls-8{fill:url(#New_Gradient_Swatch_1-8);}.cls-9{fill:url(#New_Gradient_Swatch_1-9);}.cls-10{fill:url(#New_Gradient_Swatch_1-10);}.cls-11{fill:url(#New_Gradient_Swatch_1-11);}.cls-12{fill:url(#New_Gradient_Swatch_1-12);}.cls-13{fill:url(#New_Gradient_Swatch_1-13);}.cls-14{fill:url(#New_Gradient_Swatch_1-14);}</style><linearGradient id="New_Gradient_Swatch_1" x1="18.47" y1="91.04" x2="37.72" y2="91.04" gradientUnits="userSpaceOnUse"><stop offset="0" stop-color="#c40076"/><stop offset="1" stop-color="#1170aa"/></linearGradient><linearGradient id="New_Gradient_Swatch_1-2" x1="0" y1="78.23" x2="177.79" y2="78.23" xlink:href="#New_Gradient_Swatch_1"/><linearGradient id="New_Gradient_Swatch_1-3" x1="58.86" y1="16.33" x2="99.2" y2="16.33" xlink:href="#New_Gradient_Swatch_1"/><linearGradient id="New_Gradient_Swatch_1-4" x1="58.86" y1="98.46" x2="89.85" y2="98.46" xlink:href="#New_Gradient_Swatch_1"/><linearGradient id="New_Gradient_Swatch_1-5" x1="96.12" y1="98.46" x2="127.12" y2="98.46" xlink:href="#New_Gradient_Swatch_1"/><linearGradient id="New_Gradient_Swatch_1-6" x1="133.39" y1="98.46" x2="164.39" y2="98.46" xlink:href="#New_Gradient_Swatch_1"/><linearGradient id="New_Gradient_Swatch_1-7" x1="58.86" y1="121.78" x2="89.85" y2="121.78" xlink:href="#New_Gradient_Swatch_1"/><linearGradient id="New_Gradient_Swatch_1-8" x1="96.12" y1="121.78" x2="127.12" y2="121.78" xlink:href="#New_Gradient_Swatch_1"/><linearGradient id="New_Gradient_Swatch_1-9" x1="133.39" y1="121.78" x2="164.39" y2="121.78" xlink:href="#New_Gradient_Swatch_1"/><linearGradient id="New_Gradient_Swatch_1-10" x1="58.86" y1="133.44" x2="89.85" y2="133.44" xlink:href="#New_Gradient_Swatch_1"/><linearGradient id="New_Gradient_Swatch_1-11" x1="96.12" y1="133.44" x2="127.12" y2="133.44" xlink:href="#New_Gradient_Swatch_1"/><linearGradient id="New_Gradient_Swatch_1-12" x1="133.39" y1="133.44" x2="164.39" y2="133.44" xlink:href="#New_Gradient_Swatch_1"/><linearGradient id="New_Gradient_Swatch_1-13" x1="142.95" y1="16.33" x2="164.39" y2="16.33" xlink:href="#New_Gradient_Swatch_1"/><linearGradient id="New_Gradient_Swatch_1-14" x1="58.86" y1="58.59" x2="164.39" y2="58.59" xlink:href="#New_Gradient_Swatch_1"/></defs><title>Artboard ٥</title><path class="cls-1" d="M20.87,155.93a2.4,2.4,0,0,1-.55-4.73,16.34,16.34,0,0,0,12.61-15.95V28.55a2.4,2.4,0,1,1,4.79,0V135.26a21.1,21.1,0,0,1-16.3,20.6A2.08,2.08,0,0,1,20.87,155.93Z"/><path class="cls-2" d="M177.79,58.59V2.4a2.39,2.39,0,0,0-2.4-2.4H46.9a2.4,2.4,0,0,0-2.4,2.4V26.15H2.4A2.39,2.39,0,0,0,0,28.55V60a2.37,2.37,0,0,0,.73,1.72l5.9,5.74L.94,71.85A2.42,2.42,0,0,0,0,73.75V106a2.4,2.4,0,0,0,1.66,2.28l7,2.26L1.8,112.34A2.39,2.39,0,0,0,0,114.66v20.6a21.22,21.22,0,0,0,21.2,21.2H156.59a21.23,21.23,0,0,0,21.2-21.2V74.39a2.38,2.38,0,0,0-.6-1.57l-5.83-6.67,5.74-5.88A2.4,2.4,0,0,0,177.79,58.59ZM28.1,151.66H21.2A16.42,16.42,0,0,1,4.8,135.25V116.51l13.12-3.37a2.39,2.39,0,0,0,.13-4.6L4.8,104.28V74.93l7-5.35A2.4,2.4,0,0,0,12,66L4.8,59V30.94H44.5V135.26a16.42,16.42,0,0,1-16.4,16.4Zm144.9-94-6.61,6.77a2.38,2.38,0,0,0-.09,3.25l6.7,7.65v60a16.43,16.43,0,0,1-16.41,16.41H41.51a21.17,21.17,0,0,0,7.79-16.41V4.79H173Z"/><path class="cls-3" d="M61.26,18.73H96.8a2.4,2.4,0,1,0,0-4.79H61.26a2.4,2.4,0,1,0,0,4.79Z"/><path class="cls-4" d="M61.26,100.85h26.2a2.4,2.4,0,0,0,0-4.79H61.26a2.4,2.4,0,1,0,0,4.79Z"/><path class="cls-5" d="M96.12,98.46a2.4,2.4,0,0,0,2.4,2.39h26.2a2.4,2.4,0,1,0,0-4.79H98.52a2.4,2.4,0,0,0-2.4,2.4Z"/><path class="cls-6" d="M135.79,100.85H162a2.4,2.4,0,1,0,0-4.79h-26.2a2.4,2.4,0,1,0,0,4.79Z"/><path class="cls-7" d="M61.26,124.18h26.2a2.4,2.4,0,0,0,0-4.79H61.26a2.4,2.4,0,1,0,0,4.79Z"/><path class="cls-8" d="M124.72,119.39H98.52a2.4,2.4,0,1,0,0,4.79h26.2a2.4,2.4,0,1,0,0-4.79Z"/><path class="cls-9" d="M135.79,124.18H162a2.4,2.4,0,1,0,0-4.79h-26.2a2.4,2.4,0,1,0,0,4.79Z"/><path class="cls-10" d="M61.26,135.84h26.2a2.4,2.4,0,0,0,0-4.79H61.26a2.4,2.4,0,1,0,0,4.79Z"/><path class="cls-11" d="M124.72,131.05H98.52a2.4,2.4,0,1,0,0,4.79h26.2a2.4,2.4,0,1,0,0-4.79Z"/><path class="cls-12" d="M135.79,135.84H162a2.4,2.4,0,1,0,0-4.79h-26.2a2.4,2.4,0,1,0,0,4.79Z"/><path class="cls-13" d="M145.35,18.73H162a2.4,2.4,0,1,0,0-4.79H145.35a2.4,2.4,0,1,0,0,4.79Z"/><path class="cls-14" d="M162,28H61.26a2.39,2.39,0,0,0-2.4,2.39v56.4a2.39,2.39,0,0,0,2.4,2.4H162a2.4,2.4,0,0,0,2.4-2.4V30.39A2.4,2.4,0,0,0,162,28Zm-54.8,32.41a8.11,8.11,0,1,1,8.87,0A2.4,2.4,0,0,0,115,62.77a2.37,2.37,0,0,0,1.69,1.94A17.37,17.37,0,0,1,129,81.26V84.4H94.21V81.26a17.37,17.37,0,0,1,12.35-16.55,2.39,2.39,0,0,0,.63-4.3Zm52.4,24H133.83V81.26A22.22,22.22,0,0,0,121.76,61.6a12.9,12.9,0,1,0-20.28,0A22.22,22.22,0,0,0,89.41,81.26V84.4H63.65V32.79h95.94Z"/></svg>