<svg id="Layer_1" data-name="Layer 1" xmlns="http://www.w3.org/2000/svg" xmlns:xlink="http://www.w3.org/1999/xlink" viewBox="0 0 141.54 178.16"><defs><style>.cls-1{fill:url(#New_Gradient_Swatch_1);}.cls-2{fill:url(#New_Gradient_Swatch_1-2);}.cls-3{fill:url(#New_Gradient_Swatch_1-3);}.cls-4{fill:url(#New_Gradient_Swatch_1-4);}.cls-5{fill:url(#New_Gradient_Swatch_1-5);}.cls-6{fill:url(#New_Gradient_Swatch_1-6);}</style><linearGradient id="New_Gradient_Swatch_1" y1="89.08" x2="141.54" y2="89.08" gradientUnits="userSpaceOnUse"><stop offset="0" stop-color="#c40076"/><stop offset="1" stop-color="#1170aa"/></linearGradient><linearGradient id="New_Gradient_Swatch_1-2" x1="59.21" y1="92.86" x2="82.46" y2="92.86" xlink:href="#New_Gradient_Swatch_1"/><linearGradient id="New_Gradient_Swatch_1-3" x1="50.35" y1="72.14" x2="55.88" y2="72.14" xlink:href="#New_Gradient_Swatch_1"/><linearGradient id="New_Gradient_Swatch_1-4" x1="85.79" y1="72.14" x2="91.32" y2="72.14" xlink:href="#New_Gradient_Swatch_1"/><linearGradient id="New_Gradient_Swatch_1-5" x1="47.39" y1="61.8" x2="58.83" y2="61.8" xlink:href="#New_Gradient_Swatch_1"/><linearGradient id="New_Gradient_Swatch_1-6" x1="82.84" y1="61.8" x2="94.28" y2="61.8" xlink:href="#New_Gradient_Swatch_1"/></defs><title>Artboard ٤</title><path class="cls-1" d="M127.87,137.86l-4.2-1.49c0-.17,0-.35,0-.53a14.64,14.64,0,0,0-3.49-9.82c4.63-12.49,6.46-27.18,5.33-43.66l-1.83-32.59a53,53,0,0,0-105.84.13L15.19,94.27a55,55,0,0,0,7,30.64,15.27,15.27,0,0,0-4.5,10.93c0,.2,0,.39,0,.58l-4.06,1.44A20.48,20.48,0,0,0,0,157.17v18.11a2.85,2.85,0,0,0,2.68,2.88,2.78,2.78,0,0,0,2.85-2.77V157.17a15,15,0,0,1,10-14.1l2.82-1a33.91,33.91,0,0,0,3.53,9.71,2.76,2.76,0,0,0,4.09.88,2.81,2.81,0,0,0,.72-3.59,27.63,27.63,0,0,1-3.42-13.23,9.66,9.66,0,0,1,2.06-6.08,57.75,57.75,0,0,0,4.9,6,55.09,55.09,0,0,0,41,17.49A38.15,38.15,0,0,0,108.91,115V97.29c0-16.1-4.23-34.9-11.33-50.27C94.05,39.37,90,33,85.72,28.51c-4.92-5.2-10-7.83-15-7.83s-10.1,2.63-15,7.83C51.45,33,47.35,39.37,43.82,47,36.73,62.39,32.49,81.19,32.49,97.29V115a38,38,0,0,0,6.63,21.49,51.08,51.08,0,0,1-4.88-4.56A49.6,49.6,0,0,1,20.7,94.6l2.67-44.37a47.49,47.49,0,0,1,94.8-.13L120,82.71c1.91,28.06-5.06,50.51-20.17,64.91-13.53,12.9-33,18.83-55.21,16.85A10.28,10.28,0,0,1,40,162.89a44.29,44.29,0,0,1-6.59-5.12,2.84,2.84,0,0,0-3.91-.05,2.78,2.78,0,0,0,0,4c10.11,9.63,25.11,15.15,41.16,15.15,14,0,27.22-4.18,37.19-11.77,8.26-6.29,13.51-14.32,15.2-23.05l2.94,1a15,15,0,0,1,10,14.1v18.11a2.85,2.85,0,0,0,2.68,2.88,2.78,2.78,0,0,0,2.85-2.77V157.17A20.48,20.48,0,0,0,127.87,137.86ZM70.7,26.2c5.23,0,10.79,4.7,15.81,12.2H54.9C59.92,30.9,65.48,26.2,70.7,26.2ZM51.56,43.93H89.84c7,12.75,12.34,30.61,13.37,47.59a35.51,35.51,0,0,1-34.1,20.69,34.53,34.53,0,0,1-18.75-6.64A36.85,36.85,0,0,1,38.28,90.38C39.47,73.74,44.76,56.39,51.56,43.93ZM38.09,117.05c6.71,9.28,18.82,15.49,32.61,15.49a43.87,43.87,0,0,0,15.76-2.86,2.76,2.76,0,0,0-2-5.16A38.37,38.37,0,0,1,70.7,127C53,127,38.52,115.41,38,101a42,42,0,0,0,9.07,9,40,40,0,0,0,21.75,7.7c.66,0,1.33,0,2,0a41.16,41.16,0,0,0,32.48-15.87c-.48,6.34-3.66,12.29-9.09,16.91A2.76,2.76,0,0,0,96,123.68a2.72,2.72,0,0,0,1.79-.66,34,34,0,0,0,5.51-5.91,32.68,32.68,0,0,1-65.23-.06ZM70.7,171.32a62.67,62.67,0,0,1-12-1.13c17.74-1.14,33.3-7.5,44.91-18.57a65.36,65.36,0,0,0,13.91-19.37,9.91,9.91,0,0,1,.59,3.59C118.15,155.41,96.87,171.32,70.7,171.32Z"/><path class="cls-2" d="M81.66,89.44a2.76,2.76,0,0,0-3.91,0c-1,1-3.42,2.16-6.92,2.16s-5.91-1.16-6.92-2.16A2.76,2.76,0,0,0,60,93.35c2.38,2.35,6.42,3.75,10.8,3.75s8.43-1.4,10.81-3.75A2.76,2.76,0,0,0,81.66,89.44Z"/><path class="cls-3" d="M53.11,67.9a2.76,2.76,0,0,0-2.76,2.76v3a2.77,2.77,0,1,0,5.53,0v-3A2.76,2.76,0,0,0,53.11,67.9Z"/><path class="cls-4" d="M88.56,67.9a2.76,2.76,0,0,0-2.77,2.76v3a2.77,2.77,0,1,0,5.53,0v-3A2.76,2.76,0,0,0,88.56,67.9Z"/><path class="cls-5" d="M56.07,59H50.16a2.77,2.77,0,1,0,0,5.53h5.91a2.77,2.77,0,0,0,0-5.53Z"/><path class="cls-6" d="M91.51,59H85.6a2.77,2.77,0,0,0,0,5.53h5.91a2.77,2.77,0,1,0,0-5.53Z"/></svg>